<svg xmlns="http://www.w3.org/2000/svg" viewBox="0 0 340 64">
  <path fill="#101010" fill-rule="evenodd" d="M571.253239,227 L568.129564,227 C531.446408,227 526,207.683938 526,195.994819 L526,193.590674 C526,181.818653 530.965842,163 568.129564,163 L571.253239,163 C607.535925,163 612.661955,180.07772 612.742049,187.953368 L612.742049,189.031088 L589.114252,189.031088 C588.713781,187.455959 586.711425,179.580311 569.491166,179.580311 C553.071849,179.580311 549.547703,187.124352 549.547703,194.005181 L549.547703,195 C549.547703,201.632124 553.552415,210.336788 569.57126,210.336788 C587.111896,210.336788 588.873969,201.632124 589.194346,200.222798 L612.742049,200.222798 L612.742049,201.549223 C612.742049,209.673575 607.215548,227 571.253239,227 Z M640.454653,179.165803 L640.454653,189.777202 L666.565371,189.777202 C671.531213,189.777202 673.453475,187.455959 673.453475,184.471503 L673.453475,184.388601 C673.453475,181.487047 671.611307,179.165803 666.565371,179.165803 L640.454653,179.165803 Z M640.454653,204.699482 L640.454653,225.839378 L617.707892,225.839378 L617.707892,164.160622 L671.85159,164.160622 C689.312132,164.160622 696.921084,169.963731 696.921084,179.994819 L696.921084,180.906736 C696.921084,189.860104 689.392226,193.507772 684.906949,194.668394 C692.195524,196.409326 697.161366,201.38342 697.161366,209.341969 L697.161366,218.46114 C697.161366,222.772021 697.722026,224.34715 698.282686,225.42487 L698.282686,225.839378 L675.055359,225.839378 C674.574794,225.176166 674.334511,224.34715 674.334511,222.606218 L674.334511,215.393782 C674.334511,208.264249 671.210836,204.699482 662.240283,204.699482 L640.454653,204.699482 Z M736.567727,227 C703.648999,227 700.204947,213.15544 700.204947,205.11399 L700.204947,204.284974 L725.194346,204.284974 C725.434629,207.601036 727.116608,212.989637 740.091873,212.989637 L740.812721,212.989637 C753.547703,212.989637 755.38987,210.170984 755.38987,207.186528 L755.38987,207.103627 C755.38987,204.036269 753.948174,201.880829 741.37338,201.549223 L730.320377,201.217617 C707.253239,200.471503 701.085984,192.264249 701.085984,182.647668 L701.085984,181.901554 C701.085984,171.870466 707.65371,163.082902 735.366313,163.082902 L742.4947,163.082902 C771.969376,163.082902 778.697291,172.782383 778.697291,182.564767 L778.697291,183.227979 L753.948174,183.227979 C753.707892,180.989637 752.426384,176.678756 739.531213,176.678756 L738.730271,176.678756 C726.796231,176.678756 725.594817,178.834197 725.594817,181.238342 L725.594817,181.321244 C725.594817,183.80829 727.35689,185.880829 738.570082,186.046632 L749.302709,186.295337 C771.969376,186.875648 780.779741,192.512953 780.779741,204.865285 L780.779741,206.025907 C780.779741,216.471503 775.173145,227 743.856302,227 L736.567727,227 Z M808.171967,179.165803 L808.171967,189.777202 L834.282686,189.777202 C839.248528,189.777202 841.170789,187.455959 841.170789,184.471503 L841.170789,184.388601 C841.170789,181.487047 839.328622,179.165803 834.282686,179.165803 L808.171967,179.165803 Z M808.171967,204.699482 L808.171967,225.839378 L785.425206,225.839378 L785.425206,164.160622 L839.568905,164.160622 C857.029446,164.160622 864.638398,169.963731 864.638398,179.994819 L864.638398,180.906736 C864.638398,189.860104 857.109541,193.507772 852.624264,194.668394 C859.912839,196.409326 864.878681,201.38342 864.878681,209.341969 L864.878681,218.46114 C864.878681,222.772021 865.43934,224.34715 866,225.42487 L866,225.839378 L842.772674,225.839378 C842.292108,225.176166 842.051826,224.34715 842.051826,222.606218 L842.051826,215.393782 C842.051826,208.264249 838.928151,204.699482 829.957597,204.699482 L808.171967,204.699482 Z" transform="translate(-526 -163)"/>
</svg>
